<svg height="512" viewBox="0 0 64 64" width="512" xmlns="http://www.w3.org/2000/svg"><g id="Flat"><path d="m10 18h44v43h-44z" fill="#3498db"/><path d="m54 62h-44a1 1 0 0 1 -1-1v-43a1 1 0 0 1 1-1h44a1 1 0 0 1 1 1v43a1 1 0 0 1 -1 1zm-43-2h42v-41h-42z" fill="#2980b9"/><path d="m22 22h20v7h-20z" fill="#9fe0f6"/><g fill="#b3b3b3"><path d="m32 30a1 1 0 0 1 -1-1v-3a1 1 0 0 1 2 0v3a1 1 0 0 1 -1 1z"/><path d="m37 30a1 1 0 0 1 -1-1v-3a1 1 0 0 1 2 0v3a1 1 0 0 1 -1 1z"/><path d="m27 30a1 1 0 0 1 -1-1v-3a1 1 0 0 1 2 0v3a1 1 0 0 1 -1 1z"/></g><path d="m42 30h-20a1 1 0 0 1 -1-1v-7a1 1 0 0 1 1-1h20a1 1 0 0 1 1 1v7a1 1 0 0 1 -1 1zm-19-2h18v-5h-18z" fill="#4d4d4d"/><path d="m48.98 39-.61 8c-.01.1-.01.2-.01.29v5.26a5.1 5.1 0 1 1 -10.18 0v-4.59a3.57 3.57 0 0 0 -.24-1.3l-2.59-7.05a5.732 5.732 0 0 1 .36-4.77l.09-.16a4.946 4.946 0 0 1 5.74-2.48l3.73 1.1a5.451 5.451 0 0 1 3.71 5.7z" fill="#046380"/><path d="m28.65 39.61-2.59 7.05a3.57 3.57 0 0 0 -.24 1.3v4.59a5.286 5.286 0 0 1 -5.09 5.45 5.293 5.293 0 0 1 -5.09-5.45v-5.26c0-.09 0-.19-.01-.29l-.61-8a5.451 5.451 0 0 1 3.71-5.7l3.73-1.1a4.946 4.946 0 0 1 5.74 2.48l.09.16a5.732 5.732 0 0 1 .36 4.77z" fill="#046380"/><path d="m35.11 14.578a1.007 1.007 0 0 1 -.351-.064 7.847 7.847 0 0 0 -5.518 0 1 1 0 0 1 -.7-1.873 9.855 9.855 0 0 1 6.922 0 1 1 0 0 1 -.351 1.937z" fill="#ffcc5c"/><path d="m37.979 10.477a1 1 0 0 1 -.459-.112 12 12 0 0 0 -11.04 0 1 1 0 1 1 -.92-1.775 14 14 0 0 1 12.88 0 1 1 0 0 1 -.461 1.887z" fill="#f7931e"/><path d="m40.789 6.468a1 1 0 0 1 -.518-.145 15.892 15.892 0 0 0 -16.542 0 1 1 0 0 1 -1.038-1.71 17.888 17.888 0 0 1 18.618 0 1 1 0 0 1 -.52 1.855z" fill="#f15a24"/></g></svg>